<svg xmlns="http://www.w3.org/2000/svg" viewBox="0 0 345 600"><style type="text/css">  
	.st0{fill-rule:evenodd;clip-rule:evenodd;fill:#DAE7EF;}
	.st1{fill:#5D7E90;}
	.st2{fill:#ACD4EB;}
	.st3{fill-rule:evenodd;clip-rule:evenodd;fill:#95C5E1;}
	.st4{fill-rule:evenodd;clip-rule:evenodd;fill:#D19B80;}
	.st5{fill-rule:evenodd;clip-rule:evenodd;fill:#DFA889;}
	.st6{fill-rule:evenodd;clip-rule:evenodd;fill:#6D584A;}
	.st7{fill-rule:evenodd;clip-rule:evenodd;fill:#E0E0E0;}
	.st8{fill-rule:evenodd;clip-rule:evenodd;fill:#EFEFEF;}
	.st9{fill-rule:evenodd;clip-rule:evenodd;fill:#FFFFFF;}
	.st10{fill-rule:evenodd;clip-rule:evenodd;fill:#E8BA9A;}
	.st11{fill-rule:evenodd;clip-rule:evenodd;fill:#FFF8DC;}
	.st12{fill-rule:evenodd;clip-rule:evenodd;fill:#F4CAAB;}
	.st13{fill-rule:evenodd;clip-rule:evenodd;fill:#FFEFC2;}
	.st14{fill-rule:evenodd;clip-rule:evenodd;fill:#B7825E;}
	.st15{fill-rule:evenodd;clip-rule:evenodd;fill:#515151;}
	.st16{fill-rule:evenodd;clip-rule:evenodd;fill:#D0EAFC;}
	.st17{fill-rule:evenodd;clip-rule:evenodd;fill:#00548C;}
</style><path class="st0" d="M282.2 0h-5.9l56 422.2c0.2 1.5 1.4 2.6 2.9 2.6l0 0c0.1 0 0.3 0 0.4 0 1.6-0.2 2.7-1.7 2.5-3.3L282.2 0z"/><path class="st0" d="M192.9 0l21.5 388.6c0.1 1.6 1.4 2.8 2.9 2.8l0 0c0.1 0 0.1 0 0.2 0 1.6-0.1 2.9-1.5 2.8-3.1L198.7 0H192.9z"/><path class="st0" d="M114.6 0L87.5 427.4c0 0.1 0 0.1 0 0.2 0 1.6 1.3 3 2.9 3 1.5 0 2.8-1.2 2.9-2.8L120.4 0H114.6z"/><path class="st1" d="M215.4 386.1L86 420.5l135.4 51.3 116.2-48.4 -108.4-36.9C224.7 385 219.9 384.9 215.4 386.1"/><path class="st2" d="M89.4 538.9c0.2 5.6 3.6 10.6 8.8 12.8l108.5 46.4c6.3 2.7 13.4 2.6 19.6-0.4l102.9-48.6c5.1-2.4 8.3-7.6 8.3-13.3l-0.9-112.6 -116.2 48.4L85 420.3 89.4 538.9z"/><path class="st3" d="M221.5 491.7c-1.2 0-2.4-0.2-3.6-0.7L84.1 440c-5.2-2-7.9-7.9-5.9-13.2 2-5.3 7.8-7.9 13.1-5.9l130.1 49.6L331 422.9c5.1-2.2 11.1 0.2 13.3 5.3 2.2 5.2-0.2 11.2-5.3 13.4l-113.3 49.2C224.3 491.4 222.9 491.7 221.5 491.7"/><path class="st4" d="M139.3 331.1c0 0 9.4 8.4 17.5 14.2 3.1 0.6-17.6 13.4-21.2 12.2 -5.4-9.9-13.9-11.4-13.9-11.4L139.3 331.1 139.3 331.1z"/><path class="st5" d="M142.5 322.8c0 13-10.2 26.2-19.8 26.2s-22-13.2-22-26.2 9.4-23.5 20.9-23.5C133.2 299.3 142.5 309.8 142.5 322.8"/><path class="st6" d="M91.2 311.7c0.1 4.7 4.7 16.3 16.5 13.6 11.8-2.7 17.9-9.9 19.2-9.2 1.4 10.1 11.8 13.7 12.8 19.1 17.4-18.4-5.9-50.7-27.7-35.7C105.5 304.4 100.9 312.4 91.2 311.7"/><path class="st4" d="M64.9 392.4l-39.4 21.8 3 7 47.7-16.1c0 0 40.9-25.7 47.6-33 6.7-7.3 0-18.3-11.8-14.6C104.1 360.2 64.9 392.4 64.9 392.4"/><path class="st4" d="M11.3 424.3c-1.3-4.1-0.4-8.3 5.4-10.3 5.8-1.9 11.5-0.6 12.8 3.5s-1.8 10.1-7.6 12.1S12.6 428.4 11.3 424.3"/><path class="st4" d="M13.3 415.9c0 0-14 6.7-13.3 8.2 0.8 1.6 11.5-2.4 11.5-2.4L13.3 415.9zM130.3 351.2l26.4-5.8 0.9 12.7c0 0-13.8 8.2-19.4 8.2C132.6 366.3 130.3 351.2 130.3 351.2"/><path class="st7" d="M115.3 385.4l-13 9 -16.6-19.3c0 0 26.8-20.2 33.2-22.7L115.3 385.4z"/><path class="st8" d="M138.7 358c6.1 0.3 18-12.6 18-12.6s11.1-2.5 18.3 4.5c12.5 13.1 23.4 65.3 25.8 77.4 0.3 1.6 7.7 38.3 7.7 38.3L128.1 435 113 383c0 0-0.8-27.9 5.5-30.4 6.4-2.5 11.8-1.4 11.8-1.4S132.6 357.7 138.7 358"/><path class="st5" d="M169.4 387.2l12.1 30.9L145 444.8l9.1 5.3 43.1-25.1c2.8-1.6 4.1-5.1 3-8.2l-11.6-38.5L169.4 387.2 169.4 387.2z"/><path class="st9" d="M168.3 402.3c0 0-19.1-40.1-4.4-48.4 14.7-8.3 33.8 36.7 33.8 36.7L168.3 402.3z"/><path class="st5" d="M147.2 443.2c0 0-10.8 2-11.3 3.8s-2.3 11.1-1.5 12.8c0.9 1.7 7.2 6.9 13.5 4.8 0.5-0.3 0.3-7.1 1.9-9.6 0.7-0.7 6-6.1 6-6.1L147.2 443.2 147.2 443.2z"/><path class="st10" d="M241.1 360.3c-12.5-0.8-32 16.2-32 16.2l-10.8-41.1 -6.6 0.8 6.2 52.5c0.5 4.9 6 7.6 10.2 5 11.8-7.5 26.4-11 32.6-14.8C249.8 373.3 250.2 361.4 241.1 360.3"/><path class="st11" d="M242.4 360.1c-1.3 1.8-11.6 17.5-11.6 17.5l13.9-10.7c0 0 4.1-4.8 4.5-5.6C249.6 360.6 244.7 358.3 242.4 360.1"/><path class="st10" d="M270.4 338.7c-1.4 5.9-0.9 21.1 0.4 23.1 -6.3 11.5-27.9 5.6-27.9 5.6s9.9-9.5 7.7-21.3C248.3 334.2 270.4 338.7 270.4 338.7"/><path class="st12" d="M277.5 321.7c0 13.7-9.5 27-22.1 27s-23.4-13.3-23.4-27 10.2-24.7 22.7-24.7C267.4 297 277.5 308.1 277.5 321.7"/><path class="st11" d="M279.8 375.1c4.2 18.3-5.4 40.9-4.5 52.2 0.9 11.4 6.9 17 6.9 17l-34.5 14.6 -23.1-8.1c0 0 10.1-20.8 10.1-29.4s-9.9-24.5-8.6-34.9c1.4-10.4 14.4-21.3 19.4-22.2 0 0-1.3 2.3 0.5 2.3s6.8-0.9 13.9-3.8C269.3 360.8 277 357.8 279.8 375.1"/><path class="st13" d="M251.5 420.6c0.6-7.1-3.8-13.6-10.6-15.6 -1.6-0.5-3.3-0.6-5-0.8 -0.6-0.1-1.2-0.1-1.8-0.2 0.2 0-1.3-0.3-1.3-0.3 -1.4-0.4-2.7-1-3.8-2 2.5 7.3 5.8 14.7 5.8 19.6 0 6.3-5.3 19-8.2 25.3 5.8-1.1 10.8-4.9 15-8.9C246.5 433.1 250.9 427.7 251.5 420.6"/><path class="st12" d="M271.7 362.8c-14.4-0.9-38.2 19.2-38.2 19.2l-18.9-39.6 -8.1 2.7 15.4 51.3c0.6 5.7 6.9 8.8 11.7 5.7 13.6-8.6 30.7-13.6 37.8-17.9C281.6 377.8 282 364.2 271.7 362.8"/><path class="st14" d="M241.5 309.3c-4.3-0.2-9.5 12.3-9.5 12.3s-2.2-19.5 12.2-22.7C248.3 298.8 244 309.5 241.5 309.3"/><path class="st14" d="M254.1 325.6c14.4 5.5 14.4 15.9 13.5 24.5 -2.7 20.9 13.5 32.7 20.3 30 9.5-6.3-5.4-17.2-1.3-27.2 11.3-26.3-12.6-73.5-45.2-52.6C237.5 304.7 239.7 320.2 254.1 325.6"/><path class="st15" d="M215.5 327c0.3 1.9-0.3 3.5-1.3 3.7s-2.1-1.2-2.4-3c-0.3-1.8 0.3-3.5 1.3-3.7S215.2 325.2 215.5 327M181.9 326.6l6.2-1 2.5 13.5 -6 1.6L181.9 326.6z"/><path class="st15" d="M187.2 332.9c0.7 3.9-0.6 7.4-2.7 7.8 -2.2 0.4-4.5-2.5-5.1-6.4 -0.7-3.9 0.6-7.4 2.7-7.8C184.2 326.1 186.5 329 187.2 332.9"/><path class="st16" d="M186.5 332.9c0.5 2.7-0.4 5.1-1.9 5.3 -1.5 0.3-3.1-1.7-3.5-4.4 -0.4-2.7 0.4-5.1 1.9-5.3C184.5 328.3 186.1 330.3 186.5 332.9"/><path class="st15" d="M188 325.5l25.1-1.6 1.1 6.7 -23.7 8.4L188 325.5z"/><path class="st15" d="M204.7 334.1c0.7 4-0.6 7.6-2.8 8s-4.6-2.6-5.3-6.6 0.6-7.6 2.8-8C201.6 327.1 204 330.1 204.7 334.1M225.9 328.4c0.3 2-0.3 3.8-1.4 4 -1.1 0.2-2.3-1.3-2.6-3.3s0.3-3.8 1.4-3.9C224.4 324.9 225.6 326.4 225.9 328.4"/><path class="st15" d="M192.9 328.6l6.6-1.1 2.7 14.5 -6.3 1.7L192.9 328.6z"/><path class="st15" d="M198.5 335.5c0.7 4.2-0.6 7.9-2.9 8.3 -2.3 0.4-4.8-2.7-5.5-6.9 -0.7-4.2 0.6-7.9 2.9-8.3C195.3 328.2 197.8 331.3 198.5 335.5"/><path class="st16" d="M197.9 335.5c0.5 2.9-0.4 5.4-2 5.7 -1.6 0.3-3.3-1.8-3.8-4.7 -0.5-2.9 0.4-5.4 2-5.7C195.7 330.5 197.4 332.6 197.9 335.5"/><path class="st15" d="M199.5 327.6l23.9-2.4 1.2 7.2 -22.4 9.7L199.5 327.6z"/><path class="st12" d="M199.3 327.6c0.5-1.9 8.9-3.1 10.5-2.5 1.5 0.6 6.7 5.3 7.2 7.7 0.5 2.4-2.3 9.6-2.3 9.6l-8.1 2.7c0 0-2.3-5.7-2.3-8.9C203.6 333.9 198.7 329.5 199.3 327.6M203.4 324.6c0 0-3.1-2.2-7.4-1.4 -4.3 0.7-6.1 2.2-6.1 2.2s2.6 1.3 7.1 1S203.4 324.6 203.4 324.6"/><path class="st17" d="M224.7 450.8c-2.6 9.8-1.2 18.6-1.2 18.6l24.3-10.5L224.7 450.8z"/></svg>