<svg xmlns="http://www.w3.org/2000/svg" viewBox="0 0 1280 415"><style type="text/css">  
	.st0{fill-rule:evenodd;clip-rule:evenodd;fill:#EAF5F9;}
	.st1{fill:#C5E1F1;}
	.st2{fill-rule:evenodd;clip-rule:evenodd;fill:#74A802;}
	.st3{fill-rule:evenodd;clip-rule:evenodd;fill:#A2CE00;}
	.st4{fill:none;}
	.st5{fill-rule:evenodd;clip-rule:evenodd;fill:#C5E1F1;}
	.st6{fill:#97C408;}
	.st7{fill-rule:evenodd;clip-rule:evenodd;fill:#7CAF00;}
	.st8{fill-rule:evenodd;clip-rule:evenodd;fill:#6A8C00;}
	.st9{fill-rule:evenodd;clip-rule:evenodd;fill:#779300;}
	.st10{fill-rule:evenodd;clip-rule:evenodd;fill:#95C9DB;}
	.st11{fill:#AED9E5;}
	.st12{fill-rule:evenodd;clip-rule:evenodd;fill:#89BC00;}
	.st13{fill-rule:evenodd;clip-rule:evenodd;fill:#84B902;}
	.st14{fill-rule:evenodd;clip-rule:evenodd;fill:#89BA00;}
	.st15{fill-rule:evenodd;clip-rule:evenodd;fill:#79AA00;}
	.st16{fill-rule:evenodd;clip-rule:evenodd;fill:#729B02;}
	.st17{fill-rule:evenodd;clip-rule:evenodd;fill:#648901;}
	.st18{fill-rule:evenodd;clip-rule:evenodd;fill:#709900;}
	.st19{fill-rule:evenodd;clip-rule:evenodd;fill:#6D9401;}
	.st20{fill-rule:evenodd;clip-rule:evenodd;fill:#7DB001;}
</style><path class="st0" d="M1280 388.9V121.4c-47.3-9.6-106.9-33.7-148.1-33.7 -51.5 0-169.4 37.6-209.3 37.6 -39.9 0-86.2-114-137.5-114S680.8 120.2 624 125.4s-77-90.2-137.3-90.2 -58.6 74.5-124.8 74.5S259.5 49.1 208.3 49.1C183.5 49 83.3 127.6 0 204.4v148.5l521 29.8c0 0 427.6-12.9 430.4-9l0 0L1280 388.9z"/><path class="st1" d="M1280 194.6c-45.1-20.5-99-78.3-141.4-78.3 -51.5 0-61.8 41.4-101.7 41.4C997 157.7 988 28.4 936.7 28.4s-84.8 150-141.6 155.2c-56.9 5.2-72.3-106-171.1-106S437.6 232 384.5 232 161.5 0 110.3 0C92 0 46.1 52.5 0 118.4v262.7l527.7 30.2c0 0 427.6-12.9 430.4-9l322-3L1280 194.6 1280 194.6z"/><path class="st2" d="M301.5 187.5c49.5-22.6 193.5-85.9 411-13.6s271.5 110 403.5 110 124.5 96.4 124.5 96.4l-925.4 4.5L301.5 187.5z"/><path class="st3" d="M585.2 200.9v-2.6h-13.3V197h-9.8v1.4h-2.3V201h1.5v46.2h-1.5V249h25.3v-1.8h-1.5V201L585.2 200.9 585.2 200.9z"/><path class="st4" d="M585.2 200.9v-2.6h-13.3V197h-9.8v1.4h-2.3V201h1.5v46.2h-1.5V249h25.3v-1.8h-1.5V201L585.2 200.9 585.2 200.9z"/><path class="st5" d="M563.9 206.7h6.1v-3.6h-6.1V206.7zM575.6 222.3h6.1v-3.6h-6.1V222.3zM567 215h3v-3.6h-3V215z"/><path class="st3" d="M516.5 253.2h31.9v-55h-31.9V253.2z"/><path class="st4" d="M516.5 253.2h31.9v-55h-31.9V253.2z"/><path class="st5" d="M521.2 207.8h3v-3.6h-3V207.8zM526.1 213h3v-3.6h-3V213zM531.1 213h3v-3.6h-3V213zM537.6 227.8h3v-3.6h-3V227.8zM526.2 227.8h3v-3.6h-3V227.8zM542.6 227.8h3v-3.6h-3V227.8z"/><path class="st3" d="M489.9 245.8h20V172.2h-20V245.8z"/><path class="st4" d="M489.9 245.8h20V172.2h-20V245.8z"/><path class="st3" d="M474.5 232.4h20V158.8h-20V232.4z"/><path class="st4" d="M474.5 232.4h20V158.8h-20V232.4z"/><path class="st5" d="M476.6 165.7h3v-3.1h-3V165.7zM476.6 174.5h3v-3.1h-3V174.5zM491.1 206.8h3v-3.1h-3V206.8zM501 206.8h3v-3.1h-3V206.8zM504.6 178.3h3v-3.1h-3V178.3zM500 178.3h3v-3.1h-3V178.3zM496.7 183.2h3v-3.1h-3V183.2zM496.7 187.9h3v-3.1h-3V187.9zM491.2 183.2h3v-3.1h-3V183.2zM476.6 194.4h3v-3.1h-3V194.4z"/><path class="st3" d="M462.5 219.1V167.2L454 163.6V154l-25 9.9v55.2h-1.4v2.2h36.3v-2.2H462.5z"/><path class="st4" d="M462.5 219.1V167.2L454 163.6V154l-25 9.9v55.2h-1.4v2.2h36.3v-2.2H462.5z"/><path class="st6" d="M1280 201.8c-177.5 7.7-299.6 73.3-410 76.1 -85.5 0-249-4.5-427.5-87.4C288.6 119.1 83.5 67.8 0 58.9V415h1280V201.8z"/><path class="st5" d="M432.7 173.3h3.1v-3.6h-3v3.6H432.7zM437.7 173.3h3.1v-3.6h-3v3.6H437.7zM455.1 181h3.1v-3.6h-3v3.6H455.1zM444.1 188h3.1v-3.6h-3v3.6H444.1z"/><path class="st7" d="M560.7 317.4c0 1.4-8.8 2.5-19.7 2.5s-13.4-1.1-13.4-2.4c0-1.4 2.6-2.4 13.4-2.4C551.9 314.9 560.7 316 560.7 317.4"/><path class="st8" d="M558.8 317.9h2.2v-11.7h-2.2V317.9z"/><path class="st9" d="M572.2 295.1c0 6.7-5.4 12.1-12 12.1s-12-5.4-12-12.1 5.4-12 12-12S572.2 288.5 572.2 295.1"/><path class="st8" d="M524.5 334.8h2.2v-11.7h-2.2V334.8z"/><path class="st2" d="M537.5 307.4c0 6.7-5.4 17.2-12 17.2s-12-10.5-12-17.2 5.4-12.1 12-12.1S537.5 300.7 537.5 307.4"/><path class="st7" d="M524.5 335.1c0 1.4-8.8 2.5-19.7 2.5s-13.4-1.1-13.4-2.4c0-1.4 2.6-2.4 13.4-2.4C515.7 332.7 524.5 333.8 524.5 335.1"/><path class="st8" d="M499.3 321h1.5v-8.3h-1.5V321z"/><path class="st2" d="M508.6 301.4c0 4.7-3.8 12.2-8.5 12.2s-8.5-7.5-8.5-12.2 3.8-8.6 8.5-8.6C504.7 292.9 508.6 296.7 508.6 301.4"/><path class="st7" d="M499.3 321.2c0 1-6.3 1.7-14 1.7s-9.5-0.8-9.5-1.7c0-1 1.8-1.7 9.6-1.7S499.3 320.2 499.3 321.2"/><path class="st10" d="M868.6 229.2c0 0-33.2 5-46.7 15.5s27 12.1 43.5 15.1 -6.3 18.6-6.3 18.6l27.9-1.1c0 0 26.4-13.1 6.9-20.6s-48-10.5-36-13.6c12-3 24.4-8.7 24.4-8.7L868.6 229.2 868.6 229.2z"/><path class="st11" d="M637.6 318.7c-2.5-6.2 6.9-11.9 6.7-15.6 -0.2-4.6-15.1-5.2-31.9-6.4 -27.6-2.5 23.8-37.3 49.4-36.4l4.9 0.6c-29.1 2.8-69.7 31.3-47.2 32.8 18.3 0.8 33.4 0.7 31.9 11.3 -1.2 8.6-1.6 9.7 3 14.3 29.4 1.2 55.3 3.8 62.6 5 33.8 5.4-31.3 29 61.6 32 73.5 1.5 135 3 132 18.1s-213 21.1-294 21.1 -232.5-22.6-211.5-37.7 82.5-15.1 109.5-15.1c44.9-0.6 9.4-7.2 15.6-13 6.2-7 37.3-9.9 80.7-11C619.5 318.4 628.6 318.5 637.6 318.7L637.6 318.7z"/><path class="st12" d="M1203 166.1V162.3h1.8V161h-1.8V158.8h-1.4V161h-1.8v1.4h1.8v3.8l-19.1 32.4h4.6v25.3h8.8v2.4h12.8V224h8.8V198.5h4.6L1203 166.1z"/><path class="st4" d="M1203 166.1V162.3h1.8V161h-1.8V158.8h-1.4V161h-1.8v1.4h1.8v3.8l-19.1 32.4h4.6v25.3h8.8v2.4h12.8V224h8.8V198.5h4.6L1203 166.1z"/><path class="st5" d="M1206.8 198.4c0 2.5-2 4.5-4.5 4.5s-4.5-2-4.5-4.5 2-4.5 4.5-4.5C1204.8 193.8 1206.8 195.9 1206.8 198.4M1198.9 223.8v-9.3c0.1-1.9 1.6-3.4 3.5-3.4 1.8 0 3.3 1.5 3.4 3.4v9.3"/><path class="st12" d="M1201.8 225h1.1v-15.2h-1.1V225zM1209 197.8h-6.2v-6.2h-1.1v6.2h-6.2v1.1h6.2v6.2h1.1v-6.2h6.2V197.8z"/><path class="st2" d="M1167.1 223.8V198.5h-4.6l19.1-32.3c0 0 20-0.3 20 0l-19.1 32.4h4.6v25.3L1167.1 223.8 1167.1 223.8z"/><path class="st4" d="M1167.1 223.8V198.5h-4.6l19.1-32.3c0 0 20-0.3 20 0l-19.1 32.4h4.6v25.3L1167.1 223.8 1167.1 223.8z"/><path class="st2" d="M1148.3 231.4h-19.5V202.9l9.2-11 10.4 11.1L1148.3 231.4 1148.3 231.4z"/><path class="st4" d="M1148.3 231.4h-19.5V202.9l9.2-11 10.4 11.1L1148.3 231.4 1148.3 231.4z"/><path class="st12" d="M1148.3 202.9l-10.4-11h27.7l9.7 11.1v28.4h-27.1V202.9"/><path class="st4" d="M1148.3 202.9l-10.4-11h27.7l9.7 11.1v28.4h-27.1V202.9"/><path class="st5" d="M1160.5 212.5h-8v-2.3c0-2.2 1.9-4 4.1-3.9 2.2 0 3.9 1.8 3.9 3.9V212.5zM1171.6 212.5h-8v-2.3c0-2.2 1.9-4 4.1-3.9 2.2 0 3.9 1.8 3.9 3.9V212.5z"/><path class="st2" d="M1117.8 240.5h-13.6V220.8l6.4-7.7 7.2 7.7V240.5z"/><path class="st4" d="M1117.8 240.5h-13.6V220.8l6.4-7.7 7.2 7.7V240.5z"/><path class="st13" d="M1086.7 277c0.1 1.4 9 1.5 19.8 0.4s13.3-2.5 13.1-3.8c-0.1-1.3-2.8-2.2-13.6-1C1095.2 273.6 1086.5 275.6 1086.7 277"/><path class="st12" d="M1117.8 220.8l-7.2-7.7h19.2l6.7 7.7v19.8h-18.8V220.8"/><path class="st4" d="M1117.8 220.8l-7.2-7.7h19.2l6.7 7.7v19.8h-18.8V220.8"/><path class="st5" d="M1125.2 228.8h-4.7v-4c0-1.3 1.1-2.4 2.4-2.4s2.4 1.1 2.4 2.4v4H1125.2zM1134.5 228.8h-4.9v-3.9c0-1.3 1.1-2.4 2.5-2.4 1.3 0 2.4 1.1 2.4 2.4V228.8z"/><path class="st14" d="M1102.1 242.5c7.2-0.8 12.8-2.3 16.7-4.7l-13.7-0.5c-15.3 2.3-22.9 4-22.8 4.9C1082.4 243.5 1091.3 243.7 1102.1 242.5z"/><path class="st2" d="M1127 260.8c0 4.5-3.6 8.2-8.1 8.2s-8.2-3.6-8.2-8.2l0 0c0-4.5 3.7-24.5 8.2-24.5S1127 256.3 1127 260.8"/><path class="st8" d="M1117.5 273.6h2.2v-5.1h-2.2V273.6z"/><path class="st15" d="M59.1 258.1c-0.1 1.4 8.5 3.4 19.3 4.5s13.5 0.3 13.6-1 -2.3-2.7-13.1-3.8C68.1 256.5 59.2 256.7 59.1 258.1"/><path class="st16" d="M96.9 250.6c0 3.6-2.9 6.5-6.4 6.5l0 0c-3.6 0-6.4-2.9-6.4-6.5l0 0c0-3.6 2.9-19.4 6.5-19.4C94 231.2 96.9 247 96.9 250.6"/><path class="st8" d="M90 261.4h2.2v-5.1H90V261.4z"/><path class="st15" d="M30 138.1c-0.2 1.2 6.2 3 14.1 4.2 8 1.1 10 0.4 10.1-0.7 0.2-1.2-1.6-2.4-9.5-3.5C36.7 136.9 30.1 136.9 30 138.1"/><path class="st8" d="M52.5 142.1h1.9v-4.3h-1.9V142.1z"/><path class="st17" d="M59.3 133.8c0 3-2.5 5.5-5.6 5.5s-5.6-2.5-5.6-5.5 2.5-16.4 5.6-16.4S59.3 130.8 59.3 133.8"/><path class="st15" d="M49.1 273.4c-0.1 1.4 8.6 3.2 19.4 4.2s13.5 0.1 13.6-1.3 -2.3-2.7-13.2-3.6C58.1 271.7 49.2 272.1 49.1 273.4"/><path class="st2" d="M90.3 264.8c0 4.5-3.6 8.2-8.2 8.2s-8.2-3.7-8.2-8.2 3.7-24.5 8.2-24.5S90.3 260.3 90.3 264.8"/><path class="st8" d="M80 277.5h2.2v-5.1H80V277.5z"/><path class="st15" d="M67.1 165.4c-0.1 1.1 6.4 2.8 14.5 3.8s10.2 0.4 10.3-0.7c0.1-1.1-1.7-2.2-9.8-3.2C73.9 164.2 67.2 164.3 67.1 165.4"/><path class="st8" d="M90 168h2v-4h-2V168z"/><path class="st18" d="M97 158.9c0 3.3-2.7 6-6 6s-6-2.7-6-6 2.7-18.1 6-18.1C94.3 140.8 97 155.6 97 158.9"/><path class="st15" d="M87.2 295.9c-0.1 1.4 8.6 3.2 19.4 4.2s13.5 0.1 13.6-1.3c0.1-1.3-2.3-2.7-13.2-3.6C96.2 294.3 87.3 294.6 87.2 295.9"/><path class="st2" d="M129.3 285.9c0 4.5-3.6 8.2-8.2 8.2s-8.2-3.7-8.2-8.2 3.7-24.5 8.2-24.5C125.7 261.4 129.3 281.3 129.3 285.9"/><path class="st8" d="M119 298.6h2.2v-5.1H119V298.6z"/><path class="st15" d="M51.7 170.6c-0.1 1.1 7.4 2.9 16.7 3.9s11.6 0.3 11.8-0.8c0.1-1.1-2-2.3-11.3-3.3C59.5 169.3 51.9 169.4 51.7 170.6"/><path class="st8" d="M78.4 173.6h1.9v-4.3h-1.9V173.6z"/><path class="st19" d="M86.5 162.8c0 3.8-3.1 7-7 7s-7-3.1-7-6.9c0-3.8 3.2-20.8 7-20.8S86.5 159 86.5 162.8"/><path class="st13" d="M1114.7 285c0.1 1.4 7.8 1.8 17.1 1 9.3-0.8 11.4-2.1 11.3-3.5 -0.1-1.3-2.4-2.2-11.7-1.4C1122.1 281.9 1114.6 283.6 1114.7 285"/><path class="st2" d="M1149.3 270.8c0 3.7-3 6.8-6.7 6.8s-6.7-3-6.7-6.8c0-3.7 3-20.2 6.7-20.2S1149.3 267.1 1149.3 270.8"/><path class="st8" d="M1141.6 282.2h2.2v-5.1h-2.2V282.2z"/><path class="st7" d="M290 333.8c0 1.4-8.8 2.5-19.7 2.5 -10.9 0-13.4-1.1-13.4-2.4 0-1.4 2.6-2.4 13.4-2.4C281.2 331.4 290 332.5 290 333.8"/><path class="st8" d="M288.1 334.4h2.2v-11.7h-2.2V334.4z"/><path class="st9" d="M301.5 311.5c0 6.7-5.4 12.1-12 12.1s-12-5.4-12-12c0-6.7 5.4-12.1 12-12.1S301.5 304.9 301.5 311.5"/><path class="st2" d="M333.5 307.8l11.3-17.1h-16l-11.2 17.1v36.9h16L333.5 307.8 333.5 307.8z"/><path class="st4" d="M333.5 307.8l11.3-17.1h-16l-11.2 17.1v36.9h16L333.5 307.8 333.5 307.8z"/><path class="st2" d="M356.3 307.8l11.3-17.1h-16l-11.2 17.1v36.9h16L356.3 307.8 356.3 307.8z"/><path class="st4" d="M356.3 307.8l11.3-17.1h-16l-11.2 17.1v36.9h16L356.3 307.8 356.3 307.8z"/><path class="st12" d="M333.4 344.7h-22.7v-36.9l11.3-17.1 11.5 17.1L333.4 344.7 333.4 344.7z"/><path class="st4" d="M333.4 344.7h-22.7v-36.9l11.3-17.1 11.5 17.1L333.4 344.7 333.4 344.7z"/><path class="st12" d="M356.2 344.7h-22.7v-36.9l11.3-17.1 11.5 17.1L356.2 344.7 356.2 344.7z"/><path class="st4" d="M356.2 344.7h-22.7v-36.9l11.3-17.1 11.5 17.1L356.2 344.7 356.2 344.7z"/><path class="st12" d="M379 344.7h-22.7v-36.9l11.3-17.1 11.5 17.1L379 344.7 379 344.7z"/><path class="st4" d="M379 344.7h-22.7v-36.9l11.3-17.1 11.5 17.1L379 344.7 379 344.7z"/><path class="st2" d="M310.6 307.8l11.3-17.1h-16l-11.2 17.1v36.9h16L310.6 307.8 310.6 307.8z"/><path class="st4" d="M310.6 307.8l11.3-17.1h-16l-11.2 17.1v36.9h16L310.6 307.8 310.6 307.8z"/><path class="st20" d="M310.1 344c0 2.3-29.1 3.8-39.7 3.4s-13.8-3.6-7.9-5.1c6-1.4 27.7-1 33.2-1L310.1 344 310.1 344z"/><path class="st5" d="M319.8 317.6h-4.7v-4c0-1.3 1.1-2.4 2.4-2.4s2.4 1.1 2.4 2.4L319.8 317.6 319.8 317.6zM329.1 317.6h-4.9v-3.9c0-1.3 1.1-2.4 2.4-2.4s2.4 1.1 2.4 2.5L329.1 317.6 329.1 317.6zM319.8 328.4h-4.7v-4c0-1.3 1.1-2.4 2.4-2.4s2.4 1.1 2.4 2.4l0 0L319.8 328.4 319.8 328.4zM329.1 328.4h-4.9v-3.9c0-1.3 1-2.5 2.4-2.5s2.5 1.1 2.5 2.4v0.1V328.4L329.1 328.4zM342.5 317.6h-4.7v-4c0-1.3 1.1-2.4 2.4-2.4s2.4 1.1 2.4 2.4L342.5 317.6 342.5 317.6zM351.8 317.6h-4.9v-3.9c0-1.3 1.1-2.4 2.4-2.4s2.4 1.1 2.4 2.5v3.8H351.8zM342.5 328.4h-4.7v-4c0-1.3 1.1-2.4 2.4-2.4s2.4 1.1 2.4 2.4l0 0L342.5 328.4 342.5 328.4zM351.8 328.4h-4.9v-3.9c0-1.3 1-2.5 2.4-2.5s2.5 1.1 2.5 2.4v0.1V328.4zM365.5 317.6h-4.7v-4c0-1.3 1.1-2.4 2.4-2.4s2.4 1.1 2.4 2.4L365.5 317.6 365.5 317.6zM374.8 317.6h-4.9v-3.9c0-1.3 1.1-2.4 2.4-2.4s2.4 1.1 2.4 2.5v3.8H374.8zM365.5 328.4h-4.7v-4c0-1.3 1.1-2.4 2.4-2.4s2.4 1.1 2.4 2.4l0 0L365.5 328.4 365.5 328.4zM374.8 328.4h-4.9v-3.9c0-1.3 1-2.5 2.4-2.5s2.5 1.1 2.5 2.4v0.1V328.4z"/><path class="st2" d="M232.2 349.7h-13.6v-19.8l6.4-7.7 7.2 7.7L232.2 349.7 232.2 349.7z"/><path class="st4" d="M232.2 349.7h-13.6v-19.8l6.4-7.7 7.2 7.7L232.2 349.7 232.2 349.7z"/><path class="st7" d="M231.1 348.2c0 1.4-8.8 2.5-19.7 2.5s-13.4-1.1-13.4-2.4c0-1.4 2.6-2.4 13.4-2.4C222.3 345.7 231.1 346.8 231.1 348.2"/><path class="st12" d="M232.2 329.9l-7.2-7.7h19.2l6.7 7.7v19.8h-18.8v-19.8"/><path class="st4" d="M232.2 329.9l-7.2-7.7h19.2l6.7 7.7v19.8h-18.8v-19.8"/><path class="st5" d="M239.5 337.9h-4.7v-4c0-1.3 1.1-2.4 2.4-2.4s2.4 1.1 2.4 2.4l0 0L239.5 337.9 239.5 337.9zM248.8 337.9h-4.9V334c0-1.3 1.1-2.4 2.4-2.4s2.4 1.1 2.4 2.5v3.8H248.8z"/><path class="st2" d="M259.4 293.3h-10.7v-15.7l5-6.1 5.7 6.1V293.3z"/><path class="st4" d="M259.4 293.3h-10.7v-15.7l5-6.1 5.7 6.1V293.3z"/><path class="st12" d="M259.4 277.6l-5.7-6.1h15.2l5.3 6.1v15.7h-14.9v-15.7"/><path class="st4" d="M259.4 277.6l-5.7-6.1h15.2l5.3 6.1v15.7h-14.9v-15.7"/><path class="st7" d="M259.3 291.5c0 1.1-6.7 2-15.1 2s-10.3-0.9-10.3-2 2-2 10.3-2C252.6 289.5 259.3 290.4 259.3 291.5"/><path class="st5" d="M265.2 284h-3.7v-3.1c0-1 0.8-1.9 1.9-1.9 1 0 1.9 0.8 1.9 1.9l0 0L265.2 284 265.2 284zM272.5 284h-3.9v-3.1c0-1.1 0.9-1.9 1.9-1.9 1.1 0 1.9 0.9 1.9 1.9l0 0L272.5 284 272.5 284z"/></svg>